<svg width="26" height="13" viewBox="0 0 26 13" fill="none" xmlns="http://www.w3.org/2000/svg">
<path d="M25.8695 7.4161V5.06602H24.6282L24.6284 7.4161H25.8695ZM23.3227 10.0608C23.5093 10.0608 23.6847 9.98943 23.8166 9.85975C23.9485 9.73011 24.0211 9.55776 24.0211 9.37444L24.021 7.71697L24.0208 7.7146L24.021 7.71224L24.0206 3.10827C24.0205 2.72994 23.7072 2.42211 23.3222 2.42211H22.1476L22.1481 10.0608L23.3227 10.0608ZM19.6824 12.2824C19.8143 12.412 19.9897 12.4833 20.1762 12.4833L20.8425 12.4832C21.2275 12.4832 21.5407 12.1753 21.5407 11.797L21.54 2.1257L21.5399 2.12361L21.54 2.12151L21.5399 0.686262C21.5399 0.502937 21.4673 0.330592 21.3353 0.200986C21.2034 0.0713814 21.0281 0 20.8416 0L20.1754 0.000115409C19.7904 0.000146836 19.4771 0.308048 19.4772 0.686419L19.4774 4.76619L19.4775 4.7679L19.4774 4.76963L19.4778 11.7971C19.4778 11.9804 19.5505 12.1528 19.6824 12.2824ZM18.8701 7.41654L18.8699 5.06646L0.000170708 5.06719L0 7.41727L18.8701 7.41654Z" fill="white"/>
</svg>
