<svg width="35" height="21" viewBox="0 0 35 21" fill="none" xmlns="http://www.w3.org/2000/svg">
<path d="M0 12.4757V8.52227H1.67937L1.67912 12.4757H0ZM3.44566 16.9247C3.19327 16.9247 2.95598 16.8046 2.77752 16.5865C2.59905 16.3684 2.5008 16.0785 2.50082 15.7701L2.50101 12.9818L2.50117 12.9778L2.50101 12.9739L2.50151 5.22887C2.50158 4.59242 2.92545 4.07458 3.44635 4.07458H5.0356L5.03483 16.9247L3.44566 16.9247ZM8.37078 20.6619C8.19231 20.88 7.9551 21 7.70276 21L6.80128 20.9998C6.28037 20.9997 5.85659 20.4818 5.85659 19.8453L5.85757 3.57595L5.85771 3.57243L5.85757 3.5689L5.85771 1.15446C5.85771 0.846063 5.95602 0.556135 6.13451 0.338108C6.31298 0.120081 6.55019 0 6.80256 0L7.7038 0.000194146C8.22474 0.000247014 8.64854 0.518211 8.64851 1.15472L8.64818 8.0179L8.64806 8.02077L8.64818 8.02368L8.64761 19.8456C8.64758 20.154 8.54927 20.4439 8.37078 20.6619ZM9.46989 12.4764L9.47008 8.52301L34.9998 8.52425L35 12.4777L9.46989 12.4764Z" fill="#202020"/>
</svg>
