<svg width="26" height="13" viewBox="0 0 26 13" fill="none" xmlns="http://www.w3.org/2000/svg">
<path d="M25.4217 7.4161V5.06602H24.2019L24.2021 7.4161H25.4217ZM22.919 10.0608C23.1023 10.0608 23.2747 9.98943 23.4043 9.85975C23.5339 9.73011 23.6053 9.55776 23.6053 9.37444L23.6051 7.71697L23.605 7.7146L23.6051 7.71224L23.6047 3.10827C23.6047 2.72994 23.2968 2.42211 22.9185 2.42211H21.7642L21.7647 10.0608L22.919 10.0608ZM19.3417 12.2824C19.4713 12.412 19.6436 12.4833 19.8269 12.4833L20.4817 12.4832C20.86 12.4832 21.1678 12.1753 21.1678 11.797L21.1671 2.1257L21.167 2.12361L21.1671 2.12151L21.167 0.686262C21.167 0.502937 21.0956 0.330592 20.966 0.200986C20.8364 0.0713814 20.6641 0 20.4808 0L19.8261 0.000115409C19.4478 0.000146836 19.14 0.308048 19.14 0.686419L19.1402 4.76619L19.1403 4.7679L19.1402 4.76963L19.1406 11.7971C19.1407 11.9804 19.2121 12.1528 19.3417 12.2824ZM18.5434 7.41654L18.5432 5.06646L0.000167753 5.06719L0 7.41727L18.5434 7.41654Z" fill="white"/>
</svg>
