<svg width="109" height="21" viewBox="0 0 109 21" fill="none" xmlns="http://www.w3.org/2000/svg">
<path d="M109 12.4757V8.52227H103.77L103.771 12.4757H109ZM98.2692 16.9247C99.0553 16.9247 99.7942 16.8047 100.35 16.5865C100.906 16.3684 101.212 16.0785 101.212 15.7701L101.211 12.9818L101.211 12.9778L101.211 12.9739L101.21 5.22887C101.209 4.59242 99.8893 4.07458 98.2671 4.07458H93.3177L93.3201 16.9247L98.2692 16.9247ZM82.931 20.6619C83.4868 20.88 84.2255 21 85.0114 21L87.8189 20.9998C89.4411 20.9997 90.7609 20.4818 90.7609 19.8453L90.7579 3.57595L90.7574 3.57243L90.7579 3.5689L90.7574 1.15446C90.7574 0.846063 90.4513 0.556135 89.8954 0.338108C89.3396 0.120081 88.6008 0 87.8149 0L85.0082 0.000194146C83.3858 0.000247014 82.066 0.518211 82.0661 1.15472L82.0671 8.0179L82.0675 8.02077L82.0671 8.02368L82.0689 19.8456C82.069 20.154 82.3751 20.4439 82.931 20.6619ZM79.5081 12.4764L79.5075 8.52301L0.00071927 8.52425L0 12.4777L79.5081 12.4764Z" fill="#383B47"/>
</svg>
