<svg width="25" height="12" viewBox="0 0 25 12" fill="none" xmlns="http://www.w3.org/2000/svg">
<path d="M25 7.12896V4.86987H23.8004L23.8006 7.12896H25ZM22.5388 9.67127C22.7191 9.67127 22.8886 9.60266 23.0161 9.478C23.1435 9.35337 23.2137 9.1877 23.2137 9.01148L23.2136 7.41819L23.2135 7.41591L23.2136 7.41363L23.2132 2.98792C23.2132 2.62424 22.9104 2.32833 22.5383 2.32833H21.4031L21.4037 9.67128L22.5388 9.67127ZM19.0209 11.8068C19.1483 11.9314 19.3178 12 19.498 12L20.1419 11.9999C20.514 11.9998 20.8167 11.7039 20.8167 11.3402L20.816 2.0434L20.8159 2.04139L20.816 2.03937L20.8159 0.659691C20.8159 0.483465 20.7457 0.317792 20.6182 0.193205C20.4907 0.0686176 20.3213 0 20.141 0L19.4973 0.000110941C19.1252 0.000141151 18.8225 0.296121 18.8225 0.659842L18.8227 4.58166L18.8228 4.5833L18.8227 4.58496L18.8231 11.3404C18.8232 11.5166 18.8934 11.6822 19.0209 11.8068ZM18.2358 7.12938L18.2357 4.87029L0.00016497 4.871L0 7.13009L18.2358 7.12938Z" fill="white"/>
</svg>
