<svg width="44" height="42" viewBox="0 0 44 42" fill="none" xmlns="http://www.w3.org/2000/svg">
<path d="M29.7 0C24.2323 0 19.8 4.70114 19.8 10.4988C19.8 16.2965 24.2323 20.9977 29.7 20.9977C35.1677 20.9977 39.6 16.2965 39.6 10.4988C39.6 4.70114 35.1677 0 29.7 0ZM13.2 2.33307C8.33998 2.33307 4.4 6.5116 4.4 11.6654C4.4 16.8191 8.33998 20.9977 13.2 20.9977C15.0247 20.9977 16.6903 20.4658 18.1562 19.3786C14.3968 13.4526 14.9296 7.77846 16.9785 3.20797C15.8083 2.62004 14.5231 2.33307 13.2 2.33307ZM6.7375 24.1333C2.70248 25.8994 0 30.2273 0 34.9961V39.6622C0 40.9501 0.98494 41.9953 2.2 41.9953L11.3362 42C10.8214 40.2269 10.9727 37.3525 11.0066 35.0264C11.0781 30.0873 13.0042 26.5643 13.7586 25.6357C12.3721 25.6241 10.7083 25.2672 9.4875 24.7166C9.1927 24.5836 9.02154 24.4786 8.45636 24.2056C7.90218 23.9373 7.30026 23.886 6.7375 24.1333ZM22.1375 24.1333C18.1025 25.8994 15.4 30.2273 15.4 34.9961V39.6622C15.4 40.9501 16.3849 41.9953 17.6 41.9953H41.8C43.0151 41.9953 44 40.9501 44 39.6622V34.9961C44 30.3393 41.2826 26.1164 37.2625 24.278C36.6967 24.019 36.0373 24.012 35.475 24.278C33.5284 25.2042 31.632 25.6638 29.7 25.6638C27.7746 25.6638 25.8716 25.1785 23.8564 24.2056C23.3022 23.9373 22.7003 23.886 22.1375 24.1333Z" fill="#396AFF"/>
</svg>
