<svg width="15" height="15" viewBox="0 0 15 15" fill="none" xmlns="http://www.w3.org/2000/svg">
<g clip-path="url(#clip0_2506_462)">
<path d="M14.5871 4.16318L13.2365 5.51376C13.0988 5.65146 12.8761 5.65146 12.7384 5.51376L9.48649 2.26181C9.34879 2.12412 9.34879 1.90146 9.48649 1.76376L10.8371 0.413178C11.3849 -0.134674 12.2756 -0.134674 12.8263 0.413178L14.5871 2.17392C15.1379 2.72177 15.1379 3.6124 14.5871 4.16318ZM8.32633 2.92392L0.632973 10.6173L0.011879 14.1768C-0.0730819 14.6573 0.345863 15.0733 0.826332 14.9913L4.3859 14.3673L12.0793 6.67392C12.217 6.53622 12.217 6.31357 12.0793 6.17587L8.82731 2.92392C8.68668 2.78622 8.46403 2.78622 8.32633 2.92392ZM3.6359 9.9581C3.47477 9.79697 3.47477 9.53915 3.6359 9.37802L8.14762 4.8663C8.30875 4.70517 8.56657 4.70517 8.7277 4.8663C8.88883 5.02744 8.88883 5.28525 8.7277 5.44638L4.21598 9.9581C4.05485 10.1192 3.79704 10.1192 3.6359 9.9581ZM2.57829 12.422H3.98454V13.4854L2.09489 13.8165L1.18375 12.9054L1.51481 11.0157H2.57829V12.422Z" fill="white"/>
</g>
<defs>
<clipPath id="clip0_2506_462">
<rect width="15" height="15" fill="white"/>
</clipPath>
</defs>
</svg>
