<svg width="17" height="20" viewBox="0 0 17 20" fill="none" xmlns="http://www.w3.org/2000/svg">
<path fill-rule="evenodd" clip-rule="evenodd" d="M13.628 2.25C15.6542 2.25004 16.8105 4.56361 15.5948 6.18457C15.0762 6.87626 14.796 7.7175 14.796 8.58203V15C14.796 17.6233 12.6692 19.7498 10.046 19.75H6.04596C3.42266 19.7499 1.29596 17.6233 1.29596 15V8.58203C1.2959 7.7174 1.01489 6.87631 0.496153 6.18457C-0.719397 4.56375 0.437101 2.25042 2.46295 2.25H13.628ZM6.04596 7.25C5.63174 7.25 5.29596 7.58579 5.29596 8L5.29498 14C5.29498 14.4141 5.63099 14.7497 6.04498 14.75C6.4592 14.75 6.79498 14.4142 6.79498 14L6.79596 8C6.79596 7.58595 6.45995 7.25026 6.04596 7.25ZM10.046 7.25C9.63174 7.25 9.29596 7.58579 9.29596 8L9.29498 14C9.29498 14.4141 9.63099 14.7497 10.045 14.75C10.4592 14.75 10.795 14.4142 10.795 14L10.796 8C10.796 7.58595 10.4599 7.25026 10.046 7.25Z" fill="#2B3F6C"/>
<path d="M12.0454 3L11.5013 1.36754C11.229 0.55086 10.4648 0 9.60389 0H6.48693C5.62607 0 4.86179 0.55086 4.58956 1.36754L4.04541 3" stroke="#2B3F6C" stroke-width="1.5" stroke-linecap="round"/>
</svg>
