<svg width="10" height="10" viewBox="0 0 10 10" fill="none" xmlns="http://www.w3.org/2000/svg">
<path d="M4.91322 10H4.0512C3.62341 10 3.27539 9.68459 3.27539 9.29688V4.45312C3.27539 4.06541 3.62341 3.75 4.0512 3.75H4.91322C5.34101 3.75 5.68903 4.06541 5.68903 4.45312V9.29688C5.68903 9.68459 5.34099 10 4.91322 10Z" fill="#396AFF"/>
<path d="M1.63783 10H0.775813C0.348017 10 0 9.68459 0 9.29688V6.01562C0 5.62791 0.348017 5.3125 0.775813 5.3125H1.63783C2.06562 5.3125 2.41364 5.62791 2.41364 6.01562V9.29688C2.41364 9.68459 2.0656 10 1.63783 10Z" fill="#396AFF"/>
<path d="M8.18938 10H7.32737C6.89957 10 6.55155 9.68459 6.55155 9.29688V2.8125H6.07787C5.85642 2.8125 5.66135 2.69922 5.56881 2.51688C5.47627 2.33453 5.50832 2.1266 5.65245 1.9742C5.65409 1.97246 5.65577 1.97072 5.65745 1.96902L7.50158 0.103945C7.56698 0.037793 7.66036 0 7.75837 0C7.85638 0 7.94974 0.037793 8.01517 0.103945L9.8593 1.96902C9.861 1.97072 9.86266 1.97246 9.8643 1.9742C10.0084 2.12658 10.0405 2.33453 9.94793 2.51688C9.8554 2.69922 9.66032 2.8125 9.43887 2.8125H8.96519V9.29688C8.96519 9.68459 8.61716 10 8.18938 10Z" fill="#396AFF"/>
</svg>
