<svg width="75" height="75" viewBox="0 0 75 75" fill="none" xmlns="http://www.w3.org/2000/svg">
<rect width="75" height="75" rx="20" fill="#F2F4F7"/>
<path d="M36.5859 16.1782C34.4434 17.0032 21.588 21.9554 19.4479 22.7804C18.5484 23.1258 18 23.8914 18 24.7736C18 34.4096 18.4265 38.7216 20.3619 43.687C22.8945 50.188 27.867 55.369 36.2812 59.7096C37.0296 60.0968 37.9704 60.0968 38.7188 59.7096C47.2086 55.3294 52.203 50.166 54.7137 43.687C56.6247 38.7568 57 34.656 57 24.7736C57 23.8958 56.4467 23.128 55.5521 22.7804L38.5676 16.1782C37.9533 15.9406 37.2002 15.9406 36.5859 16.1782Z" fill="#B1B1B1"/>
</svg>
