<svg width="21" height="25" viewBox="0 0 21 25" fill="none" xmlns="http://www.w3.org/2000/svg">
<path d="M10.2715 12.0426C11.9259 12.0426 13.3585 11.4492 14.5291 10.2785C15.6996 9.10793 16.293 7.67571 16.293 6.02109C16.293 4.36705 15.6996 2.93463 14.5289 1.76372C13.3582 0.593374 11.9257 0 10.2715 0C8.61687 0 7.18465 0.593374 6.01411 1.76391C4.84357 2.93444 4.25 4.36686 4.25 6.02109C4.25 7.67571 4.84357 9.10813 6.0143 10.2787C7.18503 11.449 8.61745 12.0426 10.2715 12.0426Z" fill="#B1B1B1"/>
<path d="M20.8071 19.2239C20.7733 18.7368 20.705 18.2054 20.6045 17.6443C20.503 17.0789 20.3724 16.5445 20.216 16.056C20.0544 15.5512 19.8347 15.0526 19.5631 14.5748C19.2812 14.0789 18.9501 13.6471 18.5785 13.2917C18.19 12.92 17.7143 12.6211 17.1642 12.4031C16.6161 12.1862 16.0086 12.0764 15.3587 12.0764C15.1035 12.0764 14.8567 12.1811 14.3801 12.4914C14.0867 12.6827 13.7436 12.904 13.3606 13.1487C13.0331 13.3573 12.5895 13.5528 12.0415 13.7298C11.5068 13.9028 10.964 13.9906 10.4282 13.9906C9.89246 13.9906 9.34982 13.9028 8.81462 13.7298C8.26721 13.553 7.82356 13.3575 7.49645 13.1489C7.11708 12.9064 6.77376 12.6852 6.47602 12.4912C5.99995 12.1809 5.75294 12.0762 5.49774 12.0762C4.84772 12.0762 4.24042 12.1862 3.69244 12.4033C3.14274 12.6209 2.66685 12.9198 2.27795 13.2919C1.90659 13.6474 1.57528 14.0791 1.29375 14.5748C1.02234 15.0526 0.802612 15.551 0.640869 16.0562C0.484657 16.5447 0.354004 17.0789 0.252533 17.6443C0.152016 18.2046 0.0837326 18.7362 0.0499726 19.2245C0.0167847 19.7029 0 20.1993 0 20.7008C0 22.0058 0.414848 23.0623 1.23291 23.8414C2.04086 24.6103 3.10993 25.0003 4.40998 25.0003H16.4476C17.7477 25.0003 18.8164 24.6105 19.6245 23.8414C20.4428 23.0628 20.8576 22.0062 20.8576 20.7006C20.8574 20.1969 20.8405 19.7 20.8071 19.2239Z" fill="#B1B1B1"/>
</svg>
