<svg width="25" height="26" viewBox="0 0 25 26" fill="none" xmlns="http://www.w3.org/2000/svg">
<path d="M11.8421 2.90028e-08C9.66197 2.90028e-08 7.89487 1.73653 7.89474 3.88775V5.26467H6.57895C5.37566 5.21698 3.52882 5.99116 2.83711 7.89707L1.31579 7.8565C0.589079 7.8565 -0.000131557 8.43539 2.20333e-08 9.15242C2.20333e-08 9.86945 0.589079 10.449 1.31579 10.449H2.63158V11.7449H1.31579C0.589079 11.7449 -0.000131557 12.3229 2.20333e-08 13.0408C2.20333e-08 13.7575 0.589079 14.3354 1.31579 14.3367H2.63158V15.6327H1.31579C0.589079 15.6327 -0.000131557 16.2106 2.20333e-08 16.9286C2.20333e-08 17.6452 0.589079 18.2245 1.31579 18.2245H2.63158V19.5204H1.31579C0.589079 19.5204 -0.000131557 20.0984 2.20333e-08 20.8163C2.20333e-08 21.533 0.589079 22.1122 1.31579 22.1122H2.63158C2.63158 24.2583 4.39882 26 6.57895 26H15.7895C17.9696 26 19.7368 24.2583 19.7368 22.1122V20.8163L21.0526 20.7749C23.2328 20.7749 24.9999 19.0383 25 16.8871V3.88775C25 1.73666 23.2326 -0.000259155 21.0526 2.90028e-08H11.8421ZM21.0526 2.59184C21.7793 2.59184 22.3686 3.17072 22.3684 3.88775V16.8469C22.3684 17.5636 21.7793 18.1428 21.0526 18.1428L19.7368 18.183V9.15242C19.7368 7.00521 17.9696 5.26467 15.7895 5.26467H10.5263V3.92832C10.5263 3.21129 11.1154 2.63227 11.8421 2.6324L21.0526 2.59184Z" fill="#B1B1B1"/>
</svg>
