<svg width="1095" height="1588" viewBox="0 0 1095 1588" fill="none" xmlns="http://www.w3.org/2000/svg">
<path fill-rule="evenodd" clip-rule="evenodd" d="M590.629 315.995C707.888 328.169 805.165 391.396 892.369 468.124C985.492 550.059 1092.25 638.045 1094.94 759.721C1097.67 882.757 1000.6 982.151 905.577 1064.08C816.975 1140.48 708.967 1185.1 590.629 1194.56C459.439 1205.05 311.358 1209.51 218.888 1118.97C126.702 1028.7 146.985 886.543 146.522 759.721C146.055 632.197 124.509 489.593 216.252 397.929C308.727 305.533 458.375 302.264 590.629 315.995Z" fill="#101738"/>
<path fill-rule="evenodd" clip-rule="evenodd" d="M495.293 5.32283C701.145 -13.0664 955.731 14.8469 1055.68 110.125C1149.88 199.925 943.15 290.484 898.965 390.143C855.008 489.288 979.996 630.674 804.746 676.095C629.69 721.466 471.898 599.449 309.231 542.989C190.451 501.762 45.051 471.749 9.0868 399.929C-27.8467 326.173 54.6279 256.674 133.716 192.486C230.219 114.164 318.874 21.0827 495.293 5.32283Z" fill="#001DA5"/>
<path fill-rule="evenodd" clip-rule="evenodd" d="M564.843 881.163C642.241 879.034 717.267 897.856 782.623 930.511C851.374 964.863 905.509 1012.56 942.223 1069.72C984.366 1135.34 1033.1 1208.41 1006.35 1278.84C979.458 1349.64 876.576 1378.22 806.38 1427.37C725.658 1483.89 672.95 1587.12 564.843 1587.99C456.872 1588.87 409.033 1478.94 319.664 1431.31C225.495 1381.13 56.7737 1389.6 29.6225 1302.77C1.86563 1213.99 140.588 1149.38 208.269 1075.04C253.146 1025.74 294.437 976.681 357.864 942.195C419.985 908.419 489.352 883.24 564.843 881.163Z" fill="#2E419E"/>
</svg>
