<svg width="42" height="42" viewBox="0 0 42 42" fill="none" xmlns="http://www.w3.org/2000/svg">
<path fill-rule="evenodd" clip-rule="evenodd" d="M30.7674 0C36.971 0 42 5.02899 42 11.2326V30.7674C42 36.971 36.971 42 30.7674 42H11.2326C5.02899 42 0 36.971 0 30.7674V11.2326C0 5.02899 5.02899 0 11.2326 0H30.7674ZM21 13.6744C20.1908 13.6744 19.5349 14.3304 19.5349 15.1395V19.5349H15.1395C14.3304 19.5349 13.6744 20.1908 13.6744 21C13.6744 21.8092 14.3304 22.4651 15.1395 22.4651H19.5349V26.8605C19.5349 27.6696 20.1908 28.3256 21 28.3256C21.8092 28.3256 22.4651 27.6696 22.4651 26.8605V22.4651H26.8605C27.6696 22.4651 28.3256 21.8092 28.3256 21C28.3256 20.1908 27.6696 19.5349 26.8605 19.5349H22.4651V15.1395C22.4651 14.3304 21.8092 13.6744 21 13.6744Z" fill="#2D60FF"/>
</svg>
