<svg width="943" height="36" viewBox="0 0 943 36" fill="none" xmlns="http://www.w3.org/2000/svg">
<path d="M16.2 23.4L12.0728 19.2728C11.3699 18.5698 11.3699 17.4301 12.0728 16.7272L16.2 12.6M12.6 18L25.2 18M18 36C8.05887 36 8.45936e-08 27.9411 9.53674e-07 18C1.82276e-06 8.05887 8.05888 -8.69081e-07 18 0C27.9411 8.69081e-07 36 8.05888 36 18C36 27.9411 27.9411 36 18 36Z" stroke="#2D60FF" stroke-width="1.5" stroke-linecap="round"/>
<path d="M926.8 23.4L930.927 19.2728C931.63 18.5698 931.63 17.4301 930.927 16.7272L926.8 12.6M930.4 18L917.8 18M925 36C934.941 36 943 27.9411 943 18C943 8.05887 934.941 -8.69081e-07 925 0C915.059 8.69081e-07 907 8.05888 907 18C907 27.9411 915.059 36 925 36Z" stroke="#2D60FF" stroke-width="1.5" stroke-linecap="round"/>
</svg>
