<svg width="18" height="18" viewBox="0 0 18 18" fill="none" xmlns="http://www.w3.org/2000/svg">
<path d="M18 8H14M16 10V6M3 4C3 6.20914 4.79086 8 7 8C9.20914 8 11 6.20914 11 4C11 1.79086 9.20914 0 7 0C4.79086 0 3 1.79086 3 4ZM0 13.9347C0 13.0743 0.540854 12.3068 1.35109 12.0175C5.00404 10.7128 8.99596 10.7128 12.6489 12.0175C13.4591 12.3068 14 13.0743 14 13.9347V15.2502C14 16.4376 12.9483 17.3498 11.7728 17.1818L10.8184 17.0455C8.28565 16.6837 5.71435 16.6837 3.18162 17.0455L2.22721 17.1818C1.0517 17.3498 0 16.4376 0 15.2502V13.9347Z" stroke="#2B3F6C" stroke-width="1.5" stroke-linecap="round"/>
</svg>
