<svg width="1038" height="36" viewBox="0 0 1038 36" fill="none" xmlns="http://www.w3.org/2000/svg">
<path d="M16.2 23.4L12.0728 19.2728C11.3699 18.5698 11.3699 17.4301 12.0728 16.7272L16.2 12.6M12.6 18L25.2 18M18 36C8.05887 36 8.45936e-08 27.9411 9.53674e-07 18C1.82276e-06 8.05887 8.05888 -8.69081e-07 18 0C27.9411 8.69081e-07 36 8.05888 36 18C36 27.9411 27.9411 36 18 36Z" stroke="#2D60FF" stroke-width="1.5" stroke-linecap="round"/>
<path d="M1021.8 23.4L1025.93 19.2728C1026.63 18.5698 1026.63 17.4301 1025.93 16.7272L1021.8 12.6M1025.4 18L1012.8 18M1020 36C1029.94 36 1038 27.9411 1038 18C1038 8.05887 1029.94 -8.69081e-07 1020 0C1010.06 8.69081e-07 1002 8.05888 1002 18C1002 27.9411 1010.06 36 1020 36Z" stroke="#2D60FF" stroke-width="1.5" stroke-linecap="round"/>
</svg>
