<svg width="10" height="5" viewBox="0 0 10 5" fill="none" xmlns="http://www.w3.org/2000/svg">
<path d="M9.90844 1.96647L8.0335 0.0915254C7.94413 0.00215317 7.80975 -0.024721 7.69288 0.0240275C7.57601 0.0727759 7.49976 0.185897 7.49976 0.312143V1.24961H3.43739C1.5387 1.24961 0 2.78832 0 4.68701C0 4.8595 0.139996 4.9995 0.31249 4.9995H1.56245C1.73495 4.9995 1.87494 4.8595 1.87494 4.68701C1.87494 3.82391 2.57429 3.12456 3.43739 3.12456H7.49976V4.06203C7.49976 4.18827 7.57601 4.30264 7.69288 4.35077C7.80975 4.39951 7.94413 4.37264 8.0335 4.28327L9.90844 2.40833C10.0303 2.28646 10.0303 2.08834 9.90844 1.96647Z" fill="#396AFF"/>
</svg>
