<svg width="10" height="5" viewBox="0 0 10 5" fill="none" xmlns="http://www.w3.org/2000/svg">
<path d="M9.68735 0H8.43739C8.2649 0 8.1249 0.139996 8.1249 0.312491C8.1249 1.17559 7.42555 1.87495 6.56245 1.87495H2.50008V0.937473C2.50008 0.811227 2.42383 0.696855 2.30696 0.648732C2.19009 0.600608 2.05634 0.627482 1.96634 0.716855L0.0914034 2.5918C-0.0304678 2.71367 -0.0304678 2.91179 0.0914034 3.03366L1.96634 4.90861C2.05572 4.99798 2.19009 5.02486 2.30696 4.97611C2.42383 4.92736 2.50008 4.81361 2.50008 4.68737V3.74989H6.56245C8.46114 3.74989 9.99984 2.21119 9.99984 0.312491C9.99984 0.139996 9.85985 0 9.68735 0Z" fill="#396AFF"/>
</svg>
