<svg width="37" height="38" viewBox="0 0 37 38" fill="none" xmlns="http://www.w3.org/2000/svg">
<path d="M18.0103 37.9554H14.8506C13.2825 37.9554 12.0068 36.7582 12.0068 35.2866V16.9019C12.0068 15.4303 13.2825 14.2332 14.8506 14.2332H18.0103C19.5784 14.2332 20.8541 15.4303 20.8541 16.9019V35.2866C20.8541 36.7582 19.5783 37.9554 18.0103 37.9554Z" fill="#1814F3"/>
<path d="M6.00348 37.9555H2.84375C1.27566 37.9555 0 36.7583 0 35.2867V22.8326C0 21.361 1.27566 20.1638 2.84375 20.1638H6.00348C7.57157 20.1638 8.84724 21.361 8.84724 22.8326V35.2867C8.84724 36.7583 7.5715 37.9555 6.00348 37.9555Z" fill="#1814F3"/>
<path d="M30.0178 37.9556H26.8581C25.29 37.9556 24.0143 36.7584 24.0143 35.2868V10.675H22.2781C21.4663 10.675 20.7513 10.245 20.4121 9.55294C20.0729 8.86084 20.1903 8.07163 20.7187 7.49318C20.7247 7.48659 20.7308 7.47999 20.737 7.47354L27.4967 0.39453C27.7364 0.143445 28.0787 0 28.4379 0C28.7972 0 29.1394 0.143445 29.3792 0.39453L36.1389 7.47354C36.1452 7.47999 36.1512 7.48659 36.1572 7.49318C36.6855 8.07156 36.803 8.86084 36.4638 9.55294C36.1246 10.245 35.4096 10.675 34.5978 10.675H32.8616V35.2868C32.8616 36.7584 31.5858 37.9556 30.0178 37.9556Z" fill="#1814F3"/>
</svg>
