<svg width="357" height="36" viewBox="0 0 357 36" fill="none" xmlns="http://www.w3.org/2000/svg">
<path d="M16.2 23.4L12.0728 19.2728C11.3699 18.5698 11.3699 17.4301 12.0728 16.7272L16.2 12.6M12.6 18L25.2 18M18 36C8.05887 36 8.45936e-08 27.9411 9.53674e-07 18C1.82276e-06 8.05887 8.05888 -8.69081e-07 18 0C27.9411 8.69081e-07 36 8.05888 36 18C36 27.9411 27.9411 36 18 36Z" stroke="#2D60FF" stroke-width="1.5" stroke-linecap="round"/>
<path d="M340.8 23.4L344.927 19.2728C345.63 18.5698 345.63 17.4301 344.927 16.7272L340.8 12.6M344.4 18L331.8 18M339 36C348.941 36 357 27.9411 357 18C357 8.05887 348.941 -8.69081e-07 339 0C329.059 8.69081e-07 321 8.05888 321 18C321 27.9411 329.059 36 339 36Z" stroke="#2D60FF" stroke-width="1.5" stroke-linecap="round"/>
</svg>
