<svg width="10" height="10" viewBox="0 0 10 10" fill="none" xmlns="http://www.w3.org/2000/svg">
<path d="M3.82819 2.53484L4.24248 2.9491L2.6563 4.53518L2.24201 4.12092L3.82819 2.53484Z" fill="#396AFF"/>
<path d="M2.36332 2.65614H2.94927V3.24205H2.36332V2.65614Z" fill="#396AFF"/>
<path d="M4.12117 4.41388H3.53522V3.82797H4.12117V4.41388Z" fill="#396AFF"/>
<path fill-rule="evenodd" clip-rule="evenodd" d="M5.29306 5.29275V0C2.45786 0.148705 0.148714 2.45769 0 5.29275H5.29306ZM3.53522 4.41388H4.12117V3.82797H3.53522V4.41388ZM2.94927 2.65614H2.36332V3.24205H2.94927V2.65614ZM4.24248 2.9491L3.82819 2.53484L2.24201 4.12092L2.6563 4.53518L4.24248 2.9491Z" fill="#396AFF"/>
<path d="M5.29309 5.87866H1.78857C1.93135 7.74569 3.42597 9.24022 5.29311 9.38299V5.87866H5.29309Z" fill="#396AFF"/>
<path d="M5.87891 1.17188C5.87891 1.2348 5.87891 10.0688 5.87891 9.99964C8.16551 9.84779 10.0001 7.8808 10.0001 5.5565C10.0001 3.23201 8.16606 1.32322 5.87891 1.17188ZM7.63675 5.2928C8.12141 5.2928 8.51568 5.68704 8.51568 6.17167C8.51568 6.5531 8.27001 6.87524 7.92973 6.99658V7.63645H7.34378V6.99658C7.0035 6.87524 6.75783 6.5531 6.75783 6.17167H7.34378C7.34378 6.3333 7.47511 6.46463 7.63675 6.46463C7.7984 6.46463 7.92973 6.3333 7.92973 6.17167C7.92973 6.01004 7.7984 5.87871 7.63675 5.87871C7.15209 5.87871 6.75783 5.48447 6.75783 4.99984C6.75783 4.61841 7.0035 4.29628 7.34378 4.17494V3.53506H7.92973V4.17494C8.27001 4.29628 8.51568 4.61841 8.51568 4.99984H7.92973C7.92973 4.83821 7.7984 4.70689 7.63675 4.70689C7.47511 4.70689 7.34378 4.83821 7.34378 4.99984C7.34378 5.16148 7.47511 5.2928 7.63675 5.2928Z" fill="#396AFF"/>
<path d="M7.63675 5.2928C8.12141 5.2928 8.51568 5.68704 8.51568 6.17167C8.51568 6.5531 8.27001 6.87524 7.92973 6.99658V7.63645H7.34378V6.99658C7.0035 6.87524 6.75783 6.5531 6.75783 6.17167H7.34378C7.34378 6.3333 7.47511 6.46463 7.63675 6.46463C7.7984 6.46463 7.92973 6.3333 7.92973 6.17167C7.92973 6.01004 7.7984 5.87871 7.63675 5.87871C7.15209 5.87871 6.75783 5.48447 6.75783 4.99984C6.75783 4.61841 7.0035 4.29628 7.34378 4.17494V3.53506H7.92973V4.17494C8.27001 4.29628 8.51568 4.61841 8.51568 4.99984H7.92973C7.92973 4.83821 7.7984 4.70689 7.63675 4.70689C7.47511 4.70689 7.34378 4.83821 7.34378 4.99984C7.34378 5.16148 7.47511 5.2928 7.63675 5.2928Z" fill="#396AFF"/>
</svg>
