<svg width="18" height="17" viewBox="0 0 18 17" fill="none" xmlns="http://www.w3.org/2000/svg">
<path fill-rule="evenodd" clip-rule="evenodd" d="M10.2943 0.586543C11.0748 -0.195097 12.3406 -0.195575 13.1217 0.585473L15.6135 3.07733C16.3879 3.85171 16.396 5.10536 15.6316 5.88963L13.9717 7.59272L8.63116 2.25223L10.2943 0.586543ZM7.57131 3.31369L12.9246 8.66699L6.39844 15.3629C5.83402 15.942 5.05989 16.2685 4.25154 16.2685L1.49939 16.2684C0.646563 16.2683 -0.034513 15.5574 0.00135472 14.7047L0.119509 11.8957C0.151106 11.1444 0.463331 10.4324 0.994399 9.90057L7.57131 3.31369ZM9.8935 16.1954C9.8935 16.6098 10.2292 16.9457 10.6432 16.9457H16.7649C17.179 16.9457 17.5146 16.6098 17.5146 16.1954C17.5146 15.781 17.179 15.4451 16.7649 15.4451H10.6432C10.2292 15.4451 9.8935 15.781 9.8935 16.1954Z" fill="#2B3F6C"/>
</svg>
