<svg width="35" height="35" viewBox="0 0 35 35" fill="none" xmlns="http://www.w3.org/2000/svg">
<path d="M16.5789 3.90422e-08C13.5268 3.90422e-08 11.0528 2.33764 11.0526 5.23351V7.08705H9.21053C7.52592 7.02285 4.94034 8.06502 3.97195 10.6307L1.84211 10.5761C0.824711 10.5761 -0.00018418 11.3553 3.08466e-08 12.3206C3.08466e-08 13.2858 0.824711 14.0659 1.84211 14.0659H3.68421V15.8104H1.84211C0.824711 15.8104 -0.00018418 16.5885 3.08466e-08 17.555C3.08466e-08 18.5197 0.824711 19.2977 1.84211 19.2995H3.68421V21.044H1.84211C0.824711 21.044 -0.00018418 21.822 3.08466e-08 22.7885C3.08466e-08 23.7532 0.824711 24.533 1.84211 24.533H3.68421V26.2775H1.84211C0.824711 26.2775 -0.00018418 27.0555 3.08466e-08 28.022C3.08466e-08 28.9867 0.824711 29.7665 1.84211 29.7665H3.68421C3.68421 32.6554 6.15834 35 9.21053 35H22.1053C25.1574 35 27.6316 32.6554 27.6316 29.7665V28.022L29.4737 27.9661C32.5259 27.9661 34.9998 25.6285 35 22.7326V5.23351C35 2.33781 32.5257 -0.000348862 29.4737 3.90422e-08H16.5789ZM29.4737 3.48901C30.4911 3.48901 31.316 4.26828 31.3158 5.23351V22.6786C31.3158 23.6433 30.4911 24.4231 29.4737 24.4231L27.6316 24.4771V12.3206C27.6316 9.43009 25.1574 7.08705 22.1053 7.08705H14.7368V5.28812C14.7368 4.32289 15.5616 3.54344 16.5789 3.54362L29.4737 3.48901Z" fill="#1814F3"/>
</svg>
