<svg width="27" height="25" viewBox="0 0 27 25" fill="none" xmlns="http://www.w3.org/2000/svg">
<path d="M18.225 0C14.8698 0 12.15 2.7983 12.15 6.2493C12.15 9.7003 14.8698 12.4986 18.225 12.4986C21.5802 12.4986 24.3 9.7003 24.3 6.2493C24.3 2.7983 21.5802 0 18.225 0ZM8.1 1.38873C5.11772 1.38873 2.7 3.87596 2.7 6.94367C2.7 10.0114 5.11772 12.4986 8.1 12.4986C9.21969 12.4986 10.2418 12.182 11.1413 11.5349C8.8344 8.00748 9.16137 4.63004 10.4186 1.90951C9.70056 1.55955 8.91189 1.38873 8.1 1.38873ZM4.13438 14.3651C1.65834 15.4163 0 17.9924 0 20.831V23.6085C0 24.3751 0.604395 24.9972 1.35 24.9972L6.95628 25C6.64038 23.9446 6.73326 22.2336 6.75405 20.8491C6.79793 17.9091 7.97985 15.8121 8.44277 15.2594C7.592 15.2524 6.57099 15.04 5.82188 14.7122C5.64098 14.6331 5.53594 14.5706 5.18913 14.4081C4.84906 14.2484 4.47971 14.2178 4.13438 14.3651ZM13.5844 14.3651C11.1083 15.4163 9.45 17.9924 9.45 20.831V23.6085C9.45 24.3751 10.0544 24.9972 10.8 24.9972H25.65C26.3956 24.9972 27 24.3751 27 23.6085V20.831C27 18.0591 25.3325 15.5455 22.8656 14.4512C22.5184 14.297 22.1138 14.2929 21.7688 14.4512C20.5743 15.0025 19.4106 15.2761 18.225 15.2761C17.0435 15.2761 15.8757 14.9872 14.6391 14.4081C14.2991 14.2484 13.9297 14.2178 13.5844 14.3651Z" fill="#B1B1B1"/>
</svg>
