<svg width="21" height="26" viewBox="0 0 21 26" fill="none" xmlns="http://www.w3.org/2000/svg">
<path d="M10.0078 0.1053C8.85412 0.592799 1.93199 3.51911 0.779617 4.00661C0.295305 4.21071 0 4.66311 0 5.18441C0 10.8784 0.22968 13.4264 1.2718 16.3605C2.63549 20.202 5.313 23.2635 9.84375 25.8284C10.2467 26.0572 10.7533 26.0572 11.1562 25.8284C15.7277 23.2401 18.417 20.189 19.7689 16.3605C20.7979 13.4472 21 11.024 21 5.18441C21 4.66571 20.7021 4.21201 20.2204 4.00661L11.0749 0.1053C10.7441 -0.0351 10.3386 -0.0351 10.0078 0.1053Z" fill="#B1B1B1"/>
</svg>
