<svg width="19" height="17" viewBox="0 0 19 17" fill="none" xmlns="http://www.w3.org/2000/svg">
<path d="M10.9388 0.569727C11.7411 -0.189502 13.0423 -0.189968 13.8451 0.568687L16.5674 3.14115C17.3634 3.89333 17.3717 5.11103 16.586 5.87282L14.7718 7.63166L9.12006 2.29099L10.9388 0.569727Z" fill="#2B3F6C"/>
<path d="M8.03062 3.32202L13.6956 8.67513L6.74635 15.4126C6.16617 15.9751 5.37043 16.2923 4.53952 16.2923L1.54125 16.2921C0.664614 16.2921 -0.0354766 15.6016 0.00139227 14.7733L0.129917 11.8859C0.162398 11.1562 0.483336 10.4647 1.02923 9.94804L8.03062 3.32202Z" fill="#2B3F6C"/>
<path d="M10.4949 16.2192C10.4949 16.6217 10.8399 16.948 11.2655 16.948H17.7438C18.1694 16.948 18.5144 16.6217 18.5144 16.2192C18.5144 15.8167 18.1694 15.4904 17.7438 15.4904H11.2655C10.8399 15.4904 10.4949 15.8167 10.4949 16.2192Z" fill="#2B3F6C"/>
</svg>
