<svg width="70" height="70" viewBox="0 0 70 70" fill="none" xmlns="http://www.w3.org/2000/svg">
<circle cx="35" cy="35" r="35" fill="#E7EDFF"/>
<path d="M32.5789 17C29.5268 17 27.0528 19.3376 27.0526 22.2335V24.087H25.2105C23.5259 24.0229 20.9403 25.065 19.9719 27.6307L17.8421 27.5761C16.8247 27.5761 15.9998 28.3553 16 29.3206C16 30.2858 16.8247 31.0659 17.8421 31.0659H19.6842V32.8104H17.8421C16.8247 32.8104 15.9998 33.5885 16 34.555C16 35.5197 16.8247 36.2977 17.8421 36.2995H19.6842V38.044H17.8421C16.8247 38.044 15.9998 38.822 16 39.7885C16 40.7532 16.8247 41.533 17.8421 41.533H19.6842V43.2775H17.8421C16.8247 43.2775 15.9998 44.0555 16 45.022C16 45.9867 16.8247 46.7665 17.8421 46.7665H19.6842C19.6842 49.6554 22.1583 52 25.2105 52H38.1053C41.1574 52 43.6316 49.6554 43.6316 46.7665V45.022L45.4737 44.9661C48.5259 44.9661 50.9998 42.6285 51 39.7326V22.2335C51 19.3378 48.5257 16.9997 45.4737 17H32.5789ZM45.4737 20.489C46.4911 20.489 47.316 21.2683 47.3158 22.2335V39.6786C47.3158 40.6433 46.4911 41.4231 45.4737 41.4231L43.6316 41.4771V29.3206C43.6316 26.4301 41.1574 24.087 38.1053 24.087H30.7368V22.2881C30.7368 21.3229 31.5616 20.5434 32.5789 20.5436L45.4737 20.489Z" fill="#1814F3"/>
</svg>
