<svg width="70" height="70" viewBox="0 0 70 70" fill="none" xmlns="http://www.w3.org/2000/svg">
<circle cx="35" cy="35" r="35" fill="#E7EDFF"/>
<path d="M43.3389 38.1611C41.9774 36.7997 40.3569 35.7918 38.5888 35.1817C40.4825 33.8775 41.7266 31.6947 41.7266 29.2266C41.7266 25.2418 38.4847 22 34.5 22C30.5153 22 27.2734 25.2418 27.2734 29.2266C27.2734 31.6947 28.5175 33.8775 30.4112 35.1817C28.6432 35.7918 27.0227 36.7997 25.6612 38.1611C23.3002 40.5221 22 43.6611 22 47H23.9531C23.9531 41.1844 28.6844 36.4531 34.5 36.4531C40.3156 36.4531 45.0469 41.1844 45.0469 47H47C47 43.6611 45.6998 40.5221 43.3389 38.1611ZM34.5 34.5C31.5922 34.5 29.2266 32.1344 29.2266 29.2266C29.2266 26.3187 31.5922 23.9531 34.5 23.9531C37.4078 23.9531 39.7734 26.3187 39.7734 29.2266C39.7734 32.1344 37.4078 34.5 34.5 34.5Z" fill="#1814F3"/>
</svg>
