<svg width="10" height="10" viewBox="0 0 10 10" fill="none" xmlns="http://www.w3.org/2000/svg">
<path d="M9.90901 1.96647L8.03407 0.0915254C7.94469 0.00215317 7.81032 -0.024721 7.69345 0.0240275C7.57658 0.0727759 7.50033 0.185897 7.50033 0.312143V1.24961H3.43796C1.53927 1.24961 0.000568958 2.78832 0.000568958 4.68701C0.000568958 4.8595 0.140565 4.9995 0.313059 4.9995H1.56302C1.73551 4.9995 1.87551 4.8595 1.87551 4.68701C1.87551 3.82391 2.57486 3.12456 3.43796 3.12456H7.50033V4.06203C7.50033 4.18827 7.57658 4.30264 7.69345 4.35077C7.81032 4.39951 7.94469 4.37264 8.03407 4.28327L9.90901 2.40833C10.0309 2.28646 10.0309 2.08834 9.90901 1.96647Z" fill="#396AFF"/>
<path d="M9.68735 4.99926H8.43739C8.2649 4.99926 8.1249 5.13926 8.1249 5.31175C8.1249 6.17485 7.42555 6.87421 6.56245 6.87421H2.50008V5.93673C2.50008 5.81049 2.42383 5.69612 2.30696 5.64799C2.19009 5.59987 2.05634 5.62674 1.96634 5.71612L0.0914034 7.59106C-0.0304678 7.71293 -0.0304678 7.91105 0.0914034 8.03292L1.96634 9.90787C2.05572 9.99724 2.19009 10.0241 2.30696 9.97537C2.42383 9.92662 2.50008 9.81287 2.50008 9.68663V8.74915H6.56245C8.46114 8.74915 9.99984 7.21045 9.99984 5.31175C9.99984 5.13926 9.85985 4.99926 9.68735 4.99926Z" fill="#396AFF"/>
</svg>
