<svg width="10" height="10" viewBox="0 0 10 10" fill="none" xmlns="http://www.w3.org/2000/svg">
<path d="M3.82819 2.53484L4.24248 2.9491L2.6563 4.53518L2.24201 4.12092L3.82819 2.53484Z" fill="#396AFF"/>
<path d="M2.36332 2.65614H2.94927V3.24205H2.36332V2.65614Z" fill="#396AFF"/>
<path d="M4.12117 4.41388H3.53522V3.82797H4.12117V4.41388Z" fill="#396AFF"/>
<path fill-rule="evenodd" clip-rule="evenodd" d="M5.29306 5.29275V0C2.45786 0.148705 0.148714 2.45769 0 5.29275H5.29306ZM3.53522 4.41388H4.12117V3.82797H3.53522V4.41388ZM2.94927 2.65614H2.36332V3.24205H2.94927V2.65614ZM4.24248 2.9491L3.82819 2.53484L2.24201 4.12092L2.6563 4.53518L4.24248 2.9491Z" fill="#396AFF"/>
<path d="M5.29297 5.87877H1.78845C1.93123 7.7458 3.42584 9.24033 5.29299 9.3831L5.29297 5.87877Z" fill="#396AFF"/>
<path d="M5.87878 1.17199C5.87878 1.23492 5.87878 10.0689 5.87878 9.99975C8.16539 9.8479 9.99996 7.88091 9.99996 5.55661C9.99996 3.23212 8.16594 1.32333 5.87878 1.17199ZM7.63663 5.29291C8.12129 5.29291 8.51555 5.68715 8.51555 6.17178C8.51555 6.55321 8.26989 6.87535 7.92961 6.99669V7.63657H7.34366V6.99669C7.00338 6.87535 6.75771 6.55321 6.75771 6.17178H7.34366C7.34366 6.33342 7.47499 6.46474 7.63663 6.46474C7.79827 6.46474 7.92961 6.33342 7.92961 6.17178C7.92961 6.01015 7.79827 5.87883 7.63663 5.87883C7.15197 5.87883 6.75771 5.48459 6.75771 4.99996C6.75771 4.61853 7.00338 4.29639 7.34366 4.17505V3.53517H7.92961V4.17505C8.26989 4.29639 8.51555 4.61853 8.51555 4.99996H7.92961C7.92961 4.83832 7.79827 4.707 7.63663 4.707C7.47499 4.707 7.34366 4.83832 7.34366 4.99996C7.34366 5.16159 7.47499 5.29291 7.63663 5.29291Z" fill="#396AFF"/>
<path d="M7.63663 5.29291C8.12129 5.29291 8.51555 5.68715 8.51555 6.17178C8.51555 6.55321 8.26989 6.87535 7.92961 6.99669V7.63657H7.34366V6.99669C7.00338 6.87535 6.75771 6.55321 6.75771 6.17178H7.34366C7.34366 6.33342 7.47499 6.46474 7.63663 6.46474C7.79827 6.46474 7.92961 6.33342 7.92961 6.17178C7.92961 6.01015 7.79827 5.87883 7.63663 5.87883C7.15197 5.87883 6.75771 5.48459 6.75771 4.99996C6.75771 4.61853 7.00338 4.29639 7.34366 4.17505V3.53517H7.92961V4.17505C8.26989 4.29639 8.51555 4.61853 8.51555 4.99996H7.92961C7.92961 4.83832 7.79827 4.707 7.63663 4.707C7.47499 4.707 7.34366 4.83832 7.34366 4.99996C7.34366 5.16159 7.47499 5.29291 7.63663 5.29291Z" fill="#396AFF"/>
</svg>
