<?xml version="1.0" encoding="UTF-8" standalone="no"?>
<svg
   width="944.5"
   height="37.5"
   viewBox="0 0 944.5 37.5"
   fill="none"
   version="1.1"
   id="svg2"
   sodipodi:docname="SUarrows0.svg"
   inkscape:version="1.3.2 (091e20e, 2023-11-25)"
   xmlns:inkscape="http://www.inkscape.org/namespaces/inkscape"
   xmlns:sodipodi="http://sodipodi.sourceforge.net/DTD/sodipodi-0.dtd"
   xmlns="http://www.w3.org/2000/svg"
   xmlns:svg="http://www.w3.org/2000/svg">
  <defs
     id="defs2" />
  <sodipodi:namedview
     id="namedview2"
     pagecolor="#ffffff"
     bordercolor="#000000"
     borderopacity="0.25"
     inkscape:showpageshadow="2"
     inkscape:pageopacity="0.0"
     inkscape:pagecheckerboard="0"
     inkscape:deskcolor="#d1d1d1"
     inkscape:zoom="0.4252386"
     inkscape:cx="470.32419"
     inkscape:cy="18.812968"
     inkscape:window-width="1312"
     inkscape:window-height="449"
     inkscape:window-x="0"
     inkscape:window-y="30"
     inkscape:window-maximized="0"
     inkscape:current-layer="svg2" />
  <path
     d="m 16.949999,24.15 -4.1272,-4.1272 c -0.7029,-0.703 -0.7029,-1.8427 0,-2.5456 l 4.1272,-4.1272 m -3.6,5.4 h 12.6 m -7.2,18 c -9.94113,0 -17.99999987,-8.0589 -17.999999,-18 8.7e-7,-9.94113 8.058879,-18.00000087 17.999999,-18 9.9411,8.7e-7 18,8.05888 18,18 0,9.9411 -8.0589,18 -18,18 z"
     stroke="#2d60ff"
     stroke-width="1.5"
     stroke-linecap="round"
     id="path1" />
  <path
     d="m 927.55,24.15 4.127,-4.1272 c 0.703,-0.703 0.703,-1.8427 0,-2.5456 L 927.55,13.35 m 3.6,5.4 h -12.6 m 7.2,18 c 9.941,0 18,-8.0589 18,-18 0,-9.94113 -8.059,-18.00000087 -18,-18 -9.941,8.7e-7 -18,8.05888 -18,18 0,9.9411 8.059,18 18,18 z"
     stroke="#2d60ff"
     stroke-width="1.5"
     stroke-linecap="round"
     id="path2" />
</svg>
