<svg width="53" height="43" viewBox="0 0 53 43" fill="none" xmlns="http://www.w3.org/2000/svg">
<path d="M25.1053 4.79662e-08C20.4834 4.79662e-08 16.7371 2.87195 16.7368 6.42974V8.70695H13.9474C11.3964 8.62807 7.48109 9.90846 6.01466 13.0605L2.78947 12.9934C1.24885 12.9934 -0.000278901 13.9508 4.67105e-08 15.1367C4.67105e-08 16.3225 1.24885 17.281 2.78947 17.281H5.57895V19.4243H2.78947C1.24885 19.4243 -0.000278901 20.3802 4.67105e-08 21.5675C4.67105e-08 22.7527 1.24885 23.7086 2.78947 23.7108H5.57895V25.854H2.78947C1.24885 25.854 -0.000278901 26.8099 4.67105e-08 27.9973C4.67105e-08 29.1825 1.24885 30.1405 2.78947 30.1405H5.57895V32.2838H2.78947C1.24885 32.2838 -0.000278901 33.2396 4.67105e-08 34.427C4.67105e-08 35.6122 1.24885 36.5703 2.78947 36.5703H5.57895C5.57895 40.1195 9.32549 43 13.9474 43H33.4737C38.0956 43 41.8421 40.1195 41.8421 36.5703V34.427L44.6316 34.3584C49.2535 34.3584 52.9997 31.4865 53 27.9287V6.42974C53 2.87217 49.2532 -0.000428602 44.6316 4.79662e-08H25.1053ZM44.6316 4.2865C46.1722 4.2865 47.4213 5.24389 47.4211 6.42974V27.8622C47.4211 29.0474 46.1722 30.0055 44.6316 30.0055L41.8421 30.0719V15.1367C41.8421 11.5855 38.0956 8.70695 33.4737 8.70695H22.3158V6.49684C22.3158 5.31098 23.5646 4.35337 25.1053 4.35359L44.6316 4.2865Z" fill="#396AFF"/>
</svg>
