<svg width="39" height="44" viewBox="0 0 39 44" fill="none" xmlns="http://www.w3.org/2000/svg">
<path d="M18.5859 0.1782C16.4434 1.0032 3.58799 5.95541 1.44786 6.78041C0.548423 7.12581 0 7.89142 0 8.77362C0 18.4096 0.426548 22.7216 2.36192 27.687C4.89449 34.188 9.867 39.369 18.2812 43.7096C19.0296 44.0968 19.9704 44.0968 20.7188 43.7096C29.2086 39.3294 34.203 34.166 36.7137 27.687C38.6247 22.7568 39 18.656 39 8.77362C39 7.89582 38.4467 7.12801 37.5521 6.78041L20.5676 0.1782C19.9533 -0.0593999 19.2002 -0.0593999 18.5859 0.1782Z" fill="#396AFF"/>
</svg>
