<svg width="23" height="24" viewBox="0 0 23 24" fill="none" xmlns="http://www.w3.org/2000/svg">
<path d="M6.38889 0C5.68356 0 5.11111 0.565895 5.11111 1.26316C2.2885 1.26316 0 3.52547 0 6.31579V7.65728L23 7.57895V6.31579C23 3.52547 20.7115 1.26316 17.8889 1.26316C17.8889 0.565895 17.3164 0 16.6111 0C15.9058 0 15.3333 0.565895 15.3333 1.26316H7.66667C7.66667 0.565895 7.09422 0 6.38889 0ZM0 10.1053V18.9474C0 21.7377 2.2885 24 5.11111 24H17.8889C20.7115 24 23 21.7377 23 18.9474V10.1053H0Z" fill="#B1B1B1"/>
</svg>
