<svg width="168" height="46" viewBox="0 0 168 46" fill="none" xmlns="http://www.w3.org/2000/svg">
<path d="M0 20C0 8.95431 8.95431 0 20 0H148C159.046 0 168 8.95431 168 20V26C168 37.0457 159.046 46 148 46H20C8.95431 46 0 37.0457 0 26V20Z" fill="#2E419E"/>
<path d="M130.422 24.4161V22.066H129.202L129.202 24.4161H130.422ZM127.919 27.0608C128.102 27.0608 128.275 26.9894 128.404 26.8598C128.534 26.7301 128.605 26.5578 128.605 26.3744L128.605 24.717L128.605 24.7146L128.605 24.7122L128.605 20.1083C128.605 19.7299 128.297 19.4221 127.918 19.4221H126.764L126.765 27.0608L127.919 27.0608ZM124.342 29.2824C124.471 29.412 124.644 29.4833 124.827 29.4833L125.482 29.4832C125.86 29.4832 126.168 29.1753 126.168 28.797L126.167 19.1257L126.167 19.1236L126.167 19.1215L126.167 17.6863C126.167 17.5029 126.096 17.3306 125.966 17.201C125.836 17.0714 125.664 17 125.481 17L124.826 17.0001C124.448 17.0001 124.14 17.308 124.14 17.6864L124.14 21.7662L124.14 21.7679L124.14 21.7696L124.141 28.7971C124.141 28.9804 124.212 29.1528 124.342 29.2824ZM123.543 24.4165L123.543 22.0665L105 22.0672L105 24.4173L123.543 24.4165Z" fill="white"/>
<path d="M36.9635 29V17.765H39.05V27.2345H44.9243V29H36.9635Z" fill="white"/>
<path d="M50.1526 29.1124C49.2752 29.1124 48.4941 28.9251 47.8093 28.5506C47.1245 28.1654 46.5842 27.6411 46.1883 26.9777C45.7924 26.3143 45.5944 25.5599 45.5944 24.7146C45.5944 23.8587 45.7924 23.1043 46.1883 22.4516C46.5842 21.7882 47.1245 21.2693 47.8093 20.8948C48.4941 20.5203 49.2752 20.333 50.1526 20.333C51.0407 20.333 51.8272 20.5203 52.512 20.8948C53.2075 21.2693 53.7478 21.7829 54.133 22.4356C54.5289 23.0883 54.7269 23.8479 54.7269 24.7146C54.7269 25.5599 54.5289 26.3143 54.133 26.9777C53.7478 27.6411 53.2075 28.1654 52.512 28.5506C51.8272 28.9251 51.0407 29.1124 50.1526 29.1124ZM50.1526 27.395C50.6448 27.395 51.0835 27.288 51.4687 27.074C51.8539 26.86 52.1535 26.5497 52.3675 26.1431C52.5922 25.7365 52.7046 25.2603 52.7046 24.7146C52.7046 24.1582 52.5922 23.6821 52.3675 23.2862C52.1535 22.8796 51.8539 22.5693 51.4687 22.3553C51.0835 22.1413 50.6502 22.0343 50.1687 22.0343C49.6765 22.0343 49.2378 22.1413 48.8526 22.3553C48.4781 22.5693 48.1785 22.8796 47.9538 23.2862C47.7291 23.6821 47.6167 24.1582 47.6167 24.7146C47.6167 25.2603 47.7291 25.7365 47.9538 26.1431C48.1785 26.5497 48.4781 26.86 48.8526 27.074C49.2378 27.288 49.6711 27.395 50.1526 27.395Z" fill="white"/>
<path d="M60.5294 32.2261C59.7376 32.2261 58.9619 32.119 58.2022 31.9051C57.4532 31.7017 56.8379 31.4022 56.3564 31.0063L57.2552 29.4975C57.6297 29.8078 58.1005 30.0539 58.6676 30.2358C59.2454 30.4284 59.8286 30.5247 60.4171 30.5247C61.3587 30.5247 62.0488 30.3054 62.4875 29.8667C62.9263 29.4387 63.1456 28.7913 63.1456 27.9247V26.3999L63.3061 24.4578L63.2419 22.5158V20.4293H65.1518V27.6999C65.1518 29.2514 64.756 30.391 63.9641 31.1186C63.1723 31.8569 62.0275 32.2261 60.5294 32.2261ZM60.2726 28.6148C59.4594 28.6148 58.7211 28.4436 58.0577 28.1012C57.405 27.7481 56.8861 27.2612 56.5009 26.6406C56.1264 26.0201 55.9391 25.2924 55.9391 24.4578C55.9391 23.6339 56.1264 22.9117 56.5009 22.2911C56.8861 21.6705 57.405 21.189 58.0577 20.8466C58.7211 20.5042 59.4594 20.333 60.2726 20.333C61.0002 20.333 61.6529 20.4774 62.2307 20.7663C62.8085 21.0553 63.2687 21.5047 63.611 22.1145C63.9641 22.7244 64.1407 23.5056 64.1407 24.4578C64.1407 25.4102 63.9641 26.1966 63.611 26.8172C63.2687 27.4271 62.8085 27.8818 62.2307 28.1814C61.6529 28.4704 61.0002 28.6148 60.2726 28.6148ZM60.5776 26.9135C61.0805 26.9135 61.5299 26.8118 61.9258 26.6085C62.3217 26.3945 62.6266 26.1056 62.8406 25.7418C63.0653 25.3673 63.1777 24.9394 63.1777 24.4578C63.1777 23.9763 63.0653 23.5537 62.8406 23.1899C62.6266 22.8154 62.3217 22.5319 61.9258 22.3393C61.5299 22.136 61.0805 22.0343 60.5776 22.0343C60.0747 22.0343 59.6199 22.136 59.2133 22.3393C58.8174 22.5319 58.5071 22.8154 58.2824 23.1899C58.0684 23.5537 57.9614 23.9763 57.9614 24.4578C57.9614 24.9394 58.0684 25.3673 58.2824 25.7418C58.5071 26.1056 58.8174 26.3945 59.2133 26.6085C59.6199 26.8118 60.0747 26.9135 60.5776 26.9135Z" fill="white"/>
<path d="M71.6414 29.1124C70.764 29.1124 69.9829 28.9251 69.2981 28.5506C68.6133 28.1654 68.073 27.6411 67.6771 26.9777C67.2812 26.3143 67.0832 25.5599 67.0832 24.7146C67.0832 23.8587 67.2812 23.1043 67.6771 22.4516C68.073 21.7882 68.6133 21.2693 69.2981 20.8948C69.9829 20.5203 70.764 20.333 71.6414 20.333C72.5295 20.333 73.316 20.5203 74.0008 20.8948C74.6963 21.2693 75.2366 21.7829 75.6218 22.4356C76.0177 23.0883 76.2157 23.8479 76.2157 24.7146C76.2157 25.5599 76.0177 26.3143 75.6218 26.9777C75.2366 27.6411 74.6963 28.1654 74.0008 28.5506C73.316 28.9251 72.5295 29.1124 71.6414 29.1124ZM71.6414 27.395C72.1336 27.395 72.5723 27.288 72.9575 27.074C73.3427 26.86 73.6423 26.5497 73.8563 26.1431C74.081 25.7365 74.1934 25.2603 74.1934 24.7146C74.1934 24.1582 74.081 23.6821 73.8563 23.2862C73.6423 22.8796 73.3427 22.5693 72.9575 22.3553C72.5723 22.1413 72.139 22.0343 71.6575 22.0343C71.1653 22.0343 70.7266 22.1413 70.3414 22.3553C69.9669 22.5693 69.6673 22.8796 69.4426 23.2862C69.2179 23.6821 69.1055 24.1582 69.1055 24.7146C69.1055 25.2603 69.2179 25.7365 69.4426 26.1431C69.6673 26.5497 69.9669 26.86 70.3414 27.074C70.7266 27.288 71.1599 27.395 71.6414 27.395Z" fill="white"/>
<path d="M81.7615 29.1124C81.0339 29.1124 80.3919 28.9786 79.8355 28.7111C79.2791 28.4329 78.8457 28.0156 78.5354 27.4592C78.2251 26.8921 78.07 26.1806 78.07 25.3246V20.4293H80.0762V25.0517C80.0762 25.8221 80.2474 26.3999 80.5898 26.7851C80.9429 27.1596 81.4405 27.3468 82.0825 27.3468C82.5533 27.3468 82.9599 27.2505 83.3023 27.0579C83.6554 26.8653 83.9282 26.5765 84.1208 26.1912C84.3241 25.806 84.4258 25.3299 84.4258 24.7628V20.4293H86.432V29H84.5221V26.6888L84.8591 27.395C84.5702 27.9514 84.1476 28.3794 83.5912 28.679C83.0348 28.9679 82.4249 29.1124 81.7615 29.1124Z" fill="white"/>
<path d="M92.2849 29.1124C91.3433 29.1124 90.6157 28.8716 90.1021 28.3901C89.5885 27.8979 89.3317 27.1756 89.3317 26.2234V18.5354H91.3379V26.1752C91.3379 26.5818 91.4396 26.8974 91.6429 27.1222C91.8569 27.3469 92.1511 27.4592 92.5256 27.4592C92.975 27.4592 93.3495 27.3415 93.6491 27.1061L94.2109 28.5345C93.9755 28.7271 93.6866 28.8716 93.3442 28.9679C93.0018 29.0642 92.6487 29.1124 92.2849 29.1124ZM87.9193 22.0985V20.4935H93.6331V22.0985H87.9193Z" fill="white"/>
</svg>
