<svg width="70" height="70" viewBox="0 0 70 70" fill="none" xmlns="http://www.w3.org/2000/svg">
<circle cx="35" cy="35" r="35" fill="#E7EDFF"/>
<path d="M34.8105 53.3555H31.6508C30.0827 53.3555 28.807 52.1583 28.807 50.6867V32.302C28.807 30.8304 30.0827 29.6332 31.6508 29.6332H34.8105C36.3786 29.6332 37.6542 30.8304 37.6542 32.302V50.6867C37.6542 52.1583 36.3785 53.3555 34.8105 53.3555Z" fill="#1814F3"/>
<path d="M22.8035 53.3554H19.6437C18.0756 53.3554 16.8 52.1583 16.8 50.6867V38.2325C16.8 36.7609 18.0756 35.5637 19.6437 35.5637H22.8035C24.3716 35.5637 25.6472 36.7609 25.6472 38.2325V50.6867C25.6472 52.1583 24.3715 53.3554 22.8035 53.3554Z" fill="#1814F3"/>
<path d="M46.8177 53.3556H43.658C42.0899 53.3556 40.8142 52.1584 40.8142 50.6868V26.075H39.078C38.2662 26.075 37.5512 25.6451 37.212 24.953C36.8728 24.2609 36.9903 23.4717 37.5186 22.8932C37.5246 22.8866 37.5307 22.88 37.5369 22.8736L44.2966 15.7946C44.5363 15.5435 44.8786 15.4 45.2379 15.4C45.5971 15.4 45.9393 15.5435 46.1791 15.7946L52.9388 22.8736C52.9451 22.88 52.9511 22.8866 52.9572 22.8932C53.4855 23.4716 53.6029 24.2609 53.2637 24.953C52.9245 25.6451 52.2095 26.075 51.3977 26.075H49.6615V50.6868C49.6615 52.1584 48.3857 53.3556 46.8177 53.3556Z" fill="#1814F3"/>
</svg>
