<svg width="10" height="10" viewBox="0 0 10 10" fill="none" xmlns="http://www.w3.org/2000/svg">
<path d="M4.91346 10H4.05145C3.62365 10 3.27563 9.68464 3.27563 9.29692V4.45317C3.27563 4.06546 3.62365 3.75005 4.05145 3.75005H4.91346C5.34126 3.75005 5.68927 4.06546 5.68927 4.45317V9.29692C5.68927 9.68464 5.34123 10 4.91346 10Z" fill="#396AFF"/>
<path d="M1.63783 9.99996H0.775813C0.348017 9.99996 0 9.68455 0 9.29683V6.01558C0 5.62786 0.348017 5.31245 0.775813 5.31245H1.63783C2.06562 5.31245 2.41364 5.62786 2.41364 6.01558V9.29683C2.41364 9.68455 2.0656 9.99996 1.63783 9.99996Z" fill="#396AFF"/>
<path d="M8.18926 10H7.32725C6.89945 10 6.55143 9.68459 6.55143 9.29688V2.8125H6.07776C5.85631 2.8125 5.66123 2.69922 5.56869 2.51688C5.47616 2.33453 5.5082 2.1266 5.65233 1.9742C5.65397 1.97246 5.65565 1.97072 5.65733 1.96902L7.50146 0.103945C7.56687 0.037793 7.66024 0 7.75826 0C7.85627 0 7.94962 0.037793 8.01505 0.103945L9.85918 1.96902C9.86088 1.97072 9.86254 1.97246 9.86418 1.9742C10.0083 2.12658 10.0404 2.33453 9.94782 2.51688C9.85528 2.69922 9.6602 2.8125 9.43875 2.8125H8.96508V9.29688C8.96508 9.68459 8.61704 10 8.18926 10Z" fill="#396AFF"/>
</svg>
