<svg width="19" height="24" viewBox="0 0 19 24" fill="none" xmlns="http://www.w3.org/2000/svg">
<path fill-rule="evenodd" clip-rule="evenodd" d="M16.0917 2.65674C18.4841 2.6568 19.8502 5.38822 18.415 7.30225C17.8023 8.11917 17.4706 9.11312 17.4706 10.1343V17.7124C17.4704 20.8097 14.9596 23.3206 11.8622 23.3208H7.1386C4.04106 23.3208 1.5304 20.8099 1.5302 17.7124V10.1343C1.5302 9.11314 1.19854 8.11916 0.585862 7.30225C-0.849671 5.38819 0.51654 2.65674 2.9091 2.65674H16.0917ZM7.13762 8.69678C6.72355 8.69695 6.38762 9.03267 6.38762 9.44678V16.5317C6.3879 16.9456 6.72373 17.2816 7.13762 17.2817C7.55166 17.2817 7.88734 16.9457 7.88762 16.5317V9.44678C7.88762 9.03256 7.55183 8.69678 7.13762 8.69678ZM11.8603 8.69678C11.4461 8.69678 11.1103 9.03257 11.1103 9.44678V16.5317C11.1106 16.9457 11.4462 17.2817 11.8603 17.2817C12.2743 17.2817 12.61 16.9457 12.6103 16.5317V9.44678C12.6103 9.03256 12.2745 8.69678 11.8603 8.69678Z" fill="#2B3F6C"/>
<path d="M14.2228 3.54242L13.4979 1.36754C13.2256 0.55086 12.4614 0 11.6005 0H7.39869C6.53783 0 5.77355 0.55086 5.50133 1.36754L4.77637 3.54242" stroke="#2B3F6C" stroke-width="1.5" stroke-linecap="round"/>
</svg>
