<svg width="22" height="22" viewBox="0 0 22 22" fill="none" xmlns="http://www.w3.org/2000/svg">
<path d="M4.88889 0C2.189 0 0 2.189 0 4.88889V17.1111C0 19.811 2.189 22 4.88889 22H17.1111C19.811 22 22 19.811 22 17.1111V4.88889C22 2.189 19.811 0 17.1111 0H4.88889ZM15.8889 3.66667C17.2394 3.66667 18.3333 4.76056 18.3333 6.11111C18.3333 7.46167 17.2394 8.55556 15.8889 8.55556C14.5383 8.55556 13.4444 7.46167 13.4444 6.11111C13.4444 4.76056 14.5383 3.66667 15.8889 3.66667ZM6.72222 9.77778C7.43356 9.779 8.51401 10.8863 9.54801 12.7954C9.95868 13.5508 10.3265 14.3831 10.6565 15.202C10.8545 15.6909 11.0073 16.0649 11.0758 16.2702C11.4095 17.2688 12.7637 17.4106 13.2917 16.5C13.3442 16.4096 13.4396 16.236 13.5972 16.0038C13.8612 15.6127 14.1619 15.2167 14.476 14.8573C15.2607 13.9578 16.0184 13.4444 16.5 13.4444C16.9877 13.4567 17.7406 13.9688 18.524 14.8573C18.8418 15.2179 19.1351 15.6127 19.4028 16.0038C19.4871 16.126 19.4993 16.1835 19.5556 16.2702V17.1111C19.5556 18.4617 18.4617 19.5556 17.1111 19.5556H4.88889C3.53833 19.5556 2.44444 18.4617 2.44444 17.1111V16.0796C2.52144 15.862 2.62412 15.6041 2.7879 15.202C3.12156 14.3831 3.48332 13.552 3.89643 12.7954C4.93899 10.8827 6.01211 9.77656 6.72222 9.77778Z" fill="#B1B1B1"/>
</svg>
